<?xml version="1.0" encoding="UTF-8" standalone="no"?>
<!-- Created with Inkscape (http://www.inkscape.org/) -->

<svg
   xmlns:dc="http://purl.org/dc/elements/1.1/"
   xmlns:cc="http://creativecommons.org/ns#"
   xmlns:rdf="http://www.w3.org/1999/02/22-rdf-syntax-ns#"
   xmlns:svg="http://www.w3.org/2000/svg"
   xmlns="http://www.w3.org/2000/svg"
   xmlns:sodipodi="http://sodipodi.sourceforge.net/DTD/sodipodi-0.dtd"
   xmlns:inkscape="http://www.inkscape.org/namespaces/inkscape"
   width="400"
   height="138"
   viewBox="0 0 105.83333 36.5125"
   version="1.1"
   id="svg8"
   inkscape:version="0.92.4 5da689c313, 2019-01-14"
   sodipodi:docname="logo.svg">
  <defs
     id="defs2" />
  <sodipodi:namedview
     id="base"
     pagecolor="#ffffff"
     bordercolor="#666666"
     borderopacity="1.0"
     inkscape:pageopacity="0.0"
     inkscape:pageshadow="2"
     inkscape:zoom="1.4"
     inkscape:cx="135.90937"
     inkscape:cy="64.671484"
     inkscape:document-units="mm"
     inkscape:current-layer="layer1"
     showgrid="false"
     units="px"
     width="400px"
     inkscape:window-width="1916"
     inkscape:window-height="1152"
     inkscape:window-x="1920"
     inkscape:window-y="46"
     inkscape:window-maximized="0" />
  <metadata
     id="metadata5">
    <rdf:RDF>
      <cc:Work
         rdf:about="">
        <dc:format>image/svg+xml</dc:format>
        <dc:type
           rdf:resource="http://purl.org/dc/dcmitype/StillImage" />
        <dc:title></dc:title>
      </cc:Work>
    </rdf:RDF>
  </metadata>
  <g
     inkscape:label="Layer 1"
     inkscape:groupmode="layer"
     id="layer1"
     transform="translate(0,-260.4875)">
    <path
       style="font-style:normal;font-variant:normal;font-weight:normal;font-stretch:normal;font-size:40px;line-height:25px;font-family:Xolonium;-inkscape-font-specification:Xolonium;text-align:center;letter-spacing:0px;word-spacing:0px;writing-mode:lr-tb;text-anchor:middle;fill:#000000;fill-opacity:1;stroke:none;stroke-width:1.29545438px;stroke-linecap:butt;stroke-linejoin:miter;stroke-opacity:1"
       d="M 85.21875 29.802734 L 85.21875 29.804688 L 113.52344 29.802734 L 85.21875 29.802734 z M 113.52344 29.802734 L 104.59961 50.332031 L 104.59375 50.324219 L 102.67773 54.734375 L 113.44922 79.548828 L 91.935547 79.548828 L 85.480469 94.472656 L 119.91602 94.472656 L 127.37891 111.88281 L 151.75391 111.88281 L 116.31055 29.802734 L 113.52344 29.802734 z M 159.83789 29.802734 L 159.83789 111.88281 L 182.22266 111.88281 L 182.22266 29.802734 L 159.83789 29.802734 z M 197.14648 29.802734 L 197.14648 111.88281 L 219.53125 111.88281 L 219.53125 29.802734 L 197.14648 29.802734 z M 253.10938 50.945312 C 240.67301 50.945312 234.45508 55.920051 234.45508 65.869141 L 234.45508 96.960938 C 234.45508 106.91003 240.67301 111.88281 253.10938 111.88281 L 285.44531 111.88281 C 297.88167 111.88281 304.09961 106.91003 304.09961 96.960938 L 304.09961 65.869141 C 304.09961 55.920051 297.88167 50.945312 285.44531 50.945312 L 253.10938 50.945312 z M 312.80273 50.945312 L 342.77344 116.48438 L 332.94922 138 L 355.08594 138 L 394.88086 50.945312 L 372.74414 50.945312 L 353.8418 92.234375 L 334.93945 50.945312 L 312.80273 50.945312 z M 259.94922 64.003906 L 278.60352 64.003906 C 280.67624 64.003906 281.71289 64.832053 281.71289 66.490234 L 281.71289 96.337891 C 281.71289 97.996072 280.67624 98.826172 278.60352 98.826172 L 259.94922 98.826172 C 257.87649 98.826172 256.83984 97.996072 256.83984 96.337891 L 256.83984 66.490234 C 256.83984 64.832053 257.87649 64.003906 259.94922 64.003906 z "
       transform="matrix(0.26458333,0,0,0.26458333,0,260.4875)"
       id="flowRoot1366" />
    <path
       style="opacity:1;fill:#000000;fill-opacity:0.58823532;fill-rule:evenodd;stroke:none;stroke-width:0.34275565px;stroke-linecap:butt;stroke-linejoin:miter;stroke-opacity:1"
       d="m 17.306953,268.37323 -9.3775814,21.71679 h 4.2384474 l 5.6416,-13.04681 1.407172,-3.24078 0.0014,0.002 2.361134,-5.43188 z"
       id="path1419-4"
       inkscape:connector-curvature="0"
       sodipodi:nodetypes="cccccccc" />
    <path
       style="opacity:1;fill:#000000;fill-opacity:0.39215687;fill-rule:evenodd;stroke:none;stroke-width:0.34275565px;stroke-linecap:butt;stroke-linejoin:miter;stroke-opacity:1"
       d="m 13.32854,268.37324 -9.377582,21.7168 h 2.7694937 l 5.6416003,-13.04681 1.407175,-3.24079 0.0014,0.002 2.36112,-5.4319 z"
       id="path1419-4-8"
       inkscape:connector-curvature="0"
       sodipodi:nodetypes="cccccccc" />
    <path
       style="opacity:1;fill:#000000;fill-opacity:0.19607843;fill-rule:evenodd;stroke:none;stroke-width:0.34275565px;stroke-linecap:butt;stroke-linejoin:miter;stroke-opacity:1"
       d="M 10.731774,268.37327 1.3541911,290.09005 H 2.911861 l 5.641601,-13.04681 1.407172,-3.24078 0.0014,0.002 2.361105,-5.43191 z"
       id="path1419-4-8-9"
       inkscape:connector-curvature="0"
       sodipodi:nodetypes="cccccccc" />
    <path
       style="opacity:1;fill:#000000;fill-opacity:0.78431374;fill-rule:evenodd;stroke:none;stroke-width:0.34275565px;stroke-linecap:butt;stroke-linejoin:miter;stroke-opacity:1"
       d="m 22.551373,268.37325 -9.377582,21.71679 h 6.459058 l 5.6416,-13.04681 1.407171,-3.24078 0.0014,0.002 2.361129,-5.4319 z"
       id="path1419-4-5-1"
       inkscape:connector-curvature="0"
       sodipodi:nodetypes="cccccccc" />
  </g>
</svg>
